<svg version="1.1" preserveAspectRatio="none" xmlns="http://www.w3.org/2000/svg" width="500" height="500" viewBox="0 0 500 500"><rect width="100%" height="100%" fill="#000000" fill-opacity="1"/><svg viewBox="15.8946 69.9382 498.9822 301.6402" width="333" height="201.30214384400884" x="83.5px" y="149.3489px" xmlns="http://www.w3.org/2000/svg" xmlns:xlink="http://www.w3.org/1999/xlink" preserveAspectRatio="none"><defs></defs><style>.aa2O-D20rgJ0filter-floo {flood-color:#F539BD;flood-opacity:1;}.aHsFB6mEE6colors-1 {fill:#F539B3;fill-opacity:1;}.aHsFB6mEE6colors-2 {fill:#F539BD;fill-opacity:1;}.ai0NrGVRvc0filter-floo {flood-color:#F3F3F3;flood-opacity:0.91;}.aRWrrEA-PR0filter-floo {flood-color:#E9B0D6;flood-opacity:0.5;}.atUk6sjh6M0filter-floo {flood-color:#FFC7C7;flood-opacity:0.89;}.companyName {fill:#FBE1EF;fill-opacity:1;}.icon2 {fill:#F539B3;fill-opacity:1;}.icon3 {fill:#F539BD;fill-opacity:1;}.icon3-str {stroke:#F539BD;stroke-opacity:1;}.shape-floo {flood-color:#2525CE;flood-opacity:1;}.text {fill:#F3F3F3;fill-opacity:1;}</style><defs>
      <filter
        x="15.8946"
        y="179.5784"
        width="498.9822"
        height="192"
        id="ikYEXSHZT"
        filterUnits="userSpaceOnUse"
        primitiveUnits="userSpaceOnUse"
        color-interpolation-filters="sRGB">
        
    <feGaussianBlur in="SourceGraphic" stdDeviation="7"/>
    <feOffset dx="2.4630255792620215" dy="2.4630255792620215" result="CSC3UA9D5Db"/>
    <feFlood flood-color="#2525CE" flood-opacity="1" in="CSC3UA9D5Db" />
    <feComposite  in2="CSC3UA9D5Db" operator="in" result="Ka3hxDGuem3"/><feMerge result="u7fRo6tIlQv"><feMergeNode in="Ka3hxDGuem3" /><feMergeNode in="SourceGraphic" /></feMerge><feGaussianBlur  result="LJseKuU1gGL" stdDeviation="10" />
      </filter>
      <filter
        x="52.421"
        y="216.1154"
        width="421.0033"
        height="114"
        id="tUk6sjh6M"
        filterUnits="userSpaceOnUse"
        primitiveUnits="userSpaceOnUse"
        color-interpolation-filters="sRGB">
        
    <feGaussianBlur in="SourceGraphic" stdDeviation="4"/>
    <feOffset dx="0" dy="0" result="tMFEjYDqM2-"/>
    <feFlood flood-color="#FFC7C7" flood-opacity="0.89" in="tMFEjYDqM2-" />
    <feComposite  in2="tMFEjYDqM2-" operator="in" result="s0s99quSLk2"/><feMerge result="a4sYzktMPeRt"><feMergeNode in="s0s99quSLk2" /><feMergeNode in="SourceGraphic" /></feMerge>
      </filter>
      <filter
        x="165.5312"
        y="69.9382"
        width="200.4286"
        height="192"
        id="a2O-D20rgJ"
        filterUnits="userSpaceOnUse"
        primitiveUnits="userSpaceOnUse"
        color-interpolation-filters="sRGB">
        
    <feGaussianBlur in="SourceGraphic" stdDeviation="7"/>
    <feOffset dx="2.8228399746132595" dy="2.8228399746132595" result="ohM-q791gsX"/>
    <feFlood flood-color="#F539BD" flood-opacity="1" in="ohM-q791gsX" />
    <feComposite  in2="ohM-q791gsX" operator="in" result="gs7VBrMV6AN"/><feMerge result="O9-EYnVv4io"><feMergeNode in="gs7VBrMV6AN" /><feMergeNode in="SourceGraphic" /></feMerge><feGaussianBlur  result="kgDaZvflsPR" stdDeviation="10" />
      </filter>
      <filter
        x="201.7084"
        y="106.1154"
        width="122.4286"
        height="114"
        id="i0NrGVRvc"
        filterUnits="userSpaceOnUse"
        primitiveUnits="userSpaceOnUse"
        color-interpolation-filters="sRGB">
        
    <feGaussianBlur in="SourceGraphic" stdDeviation="4"/>
    <feOffset dx="0" dy="0" result="VHtPBAOPGtS"/>
    <feFlood flood-color="#F3F3F3" flood-opacity="0.91" in="VHtPBAOPGtS" />
    <feComposite  in2="VHtPBAOPGtS" operator="in" result="asl8-H02PUp"/><feMerge result="k3Mm6nRR03m"><feMergeNode in="asl8-H02PUp" /><feMergeNode in="SourceGraphic" /></feMerge>
      </filter></defs><g opacity="1" transform="rotate(0 99.7163 346.1154)">
<svg width="326.4127" height="18" x="99.7163" y="346.1154" version="1.1" preserveAspectRatio="none" viewBox="2.6 -28 513.52 28.32">
  <g transform="matrix(1 0 0 1 0 0)" class="text"><path id="id-6izo4zJp22" d="M5.60-20L5.60-16.96Q7.60-20.32 11.68-20.32L11.68-20.32Q13.68-20.32 15.38-19.26Q17.08-18.20 18.04-16.28L18.04-16.28Q19.40-18.80 22.28-19.88L22.28-19.88Q23.44-20.32 24.90-20.32Q26.36-20.32 27.70-19.74Q29.04-19.16 30.08-18.08L30.08-18.08Q32.32-15.68 32.32-12.08L32.32-12.08L32.32 0L29.32 0L29.32-12Q29.32-14.48 27.92-16.08L27.92-16.08Q26.52-17.60 24.36-17.60L24.36-17.60Q22.08-17.60 20.56-16.12L20.56-16.12Q18.96-14.60 18.96-11.96L18.96-11.96L18.96 0L15.96 0L15.96-12Q15.96-14.48 14.56-16.08L14.56-16.08Q13.16-17.60 11-17.60L11-17.60Q8.72-17.60 7.20-16.12L7.20-16.12Q5.60-14.60 5.60-11.96L5.60-11.96L5.60 0L2.60 0L2.60-20L5.60-20Z M50-20.32L50-20.32Q54.48-20.32 57.28-17.32L57.28-17.32Q59.92-14.44 59.92-10L59.92-10Q59.92-5.56 57.28-2.68L57.28-2.68Q54.48 0.32 50 0.32L50 0.32Q45.52 0.32 42.72-2.68L42.72-2.68Q40.08-5.56 40.08-10L40.08-10Q40.08-14.44 42.72-17.32L42.72-17.32Q45.52-20.32 50-20.32ZM50-2.40L50-2.40Q53.24-2.40 55.12-4.64L55.12-4.64Q56.92-6.76 56.92-10L56.92-10Q56.92-13.24 55.12-15.36L55.12-15.36Q53.24-17.60 50-17.60L50-17.60Q46.76-17.60 44.88-15.36L44.88-15.36Q43.08-13.24 43.08-10L43.08-10Q43.08-6.76 44.88-4.64L44.88-4.64Q46.76-2.40 50-2.40Z M72.68 0L69.68 0L69.68-17.36L65.60-17.36L65.60-20L69.68-20L69.68-27.16L72.68-27.16L72.68-20L77.28-20L77.28-17.36L72.68-17.36L72.68 0Z M89.72 0L86.72 0L86.72-17.36L82.64-17.36L82.64-20L86.72-20L86.72-27.16L89.72-27.16L89.72-20L94.32-20L94.32-17.36L89.72-17.36L89.72 0Z M109.88-20.32L109.88-20.32Q114.36-20.32 117.16-17.32L117.16-17.32Q119.80-14.44 119.80-10L119.80-10Q119.80-5.56 117.16-2.68L117.16-2.68Q114.36 0.32 109.88 0.32L109.88 0.32Q105.40 0.32 102.60-2.68L102.60-2.68Q99.96-5.56 99.96-10L99.96-10Q99.96-14.44 102.60-17.32L102.60-17.32Q105.40-20.32 109.88-20.32ZM109.88-2.40L109.88-2.40Q113.12-2.40 115-4.64L115-4.64Q116.80-6.76 116.80-10L116.80-10Q116.80-13.24 115-15.36L115-15.36Q113.12-17.60 109.88-17.60L109.88-17.60Q106.64-17.60 104.76-15.36L104.76-15.36Q102.96-13.24 102.96-10L102.96-10Q102.96-6.76 104.76-4.64L104.76-4.64Q106.64-2.40 109.88-2.40Z M127.28-4.08L131.16-4.08L131.16 0L127.28 0L127.28-4.08ZM127.28-20L131.16-20L131.16-15.92L127.28-15.92L127.28-20Z M154.68-14.64L151.64-14.64Q151.24-17.76 146.62-17.76Q142-17.76 142-14.88L142-14.88Q142-13.68 142.98-13.06Q143.96-12.44 145.44-12.04Q146.92-11.64 148.66-11.30Q150.40-10.96 151.88-10.34Q153.36-9.72 154.34-8.64Q155.32-7.56 155.32-5.68L155.32-5.68Q155.32-2.76 153.12-1.22Q150.92 0.32 147.16 0.32L147.16 0.32Q143.16 0.32 140.80-1.68L140.80-1.68Q138.64-3.44 138.48-6.28L138.48-6.28L141.60-6.28Q141.88-3.52 144.72-2.56L144.72-2.56Q145.76-2.24 146.78-2.24Q147.80-2.24 148.68-2.36Q149.56-2.48 150.40-2.80L150.40-2.80Q152.32-3.56 152.32-5.40L152.32-5.40Q152.32-6.64 151.34-7.30Q150.36-7.96 148.88-8.38Q147.40-8.80 145.66-9.14Q143.92-9.48 142.44-10.08Q140.96-10.68 139.98-11.72Q139-12.76 139-14.60L139-14.60Q139-17.32 140.98-18.82Q142.96-20.32 146.84-20.32L146.84-20.32Q150.52-20.32 152.64-18.56L152.64-18.56Q154.40-17.08 154.68-14.64L154.68-14.64Z M163.16-28L166.16-28L166.16-16.88Q167.24-18.32 168.80-19.32Q170.36-20.32 172.36-20.32Q174.36-20.32 175.80-19.76Q177.24-19.20 178.32-18.08L178.32-18.08Q180.80-15.64 180.80-11.64L180.80-11.64L180.80 0L177.80 0L177.80-11.56Q177.80-14.32 176.24-15.96Q174.68-17.60 172.20-17.60L172.20-17.60Q169.68-17.60 167.92-15.92L167.92-15.92Q166.16-14.20 166.16-11.52L166.16-11.52L166.16 0L163.16 0L163.16-28Z M189.80 0L189.80-20L192.80-20L192.80 0L189.80 0ZM189.68-27.28L192.92-27.28L192.92-23.36L189.68-23.36L189.68-27.28Z M202.00-20L205.00-20L205.00-16.88Q206.08-18.32 207.64-19.32Q209.20-20.32 211.20-20.32Q213.20-20.32 214.64-19.76Q216.08-19.20 217.16-18.08L217.16-18.08Q219.64-15.64 219.64-11.64L219.64-11.64L219.64 0L216.64 0L216.64-11.56Q216.64-14.32 215.08-15.96Q213.52-17.60 211.04-17.60L211.04-17.60Q208.52-17.60 206.76-15.92L206.76-15.92Q205.00-14.20 205.00-11.52L205.00-11.52L205.00 0L202.00 0L202.00-20Z M237.56-2.40L237.56-2.40Q241.60-2.40 243.36-5.76L243.36-5.76L246.64-5.76Q245.60-3.04 243.34-1.36Q241.08 0.32 237.52 0.32L237.52 0.32Q233.00 0.32 230.16-2.68L230.16-2.68Q227.40-5.60 227.40-10L227.40-10Q227.40-14.44 230.04-17.32L230.04-17.32Q232.84-20.32 237.32-20.32L237.32-20.32Q241.80-20.32 244.60-17.32L244.60-17.32Q247.24-14.44 247.24-10L247.24-10L247.24-8.80L230.48-8.80Q230.80-6.04 232.68-4.24L232.68-4.24Q234.60-2.40 237.56-2.40ZM237.32-17.60L237.32-17.60Q234.56-17.60 232.68-15.88L232.68-15.88Q230.92-14.24 230.52-11.60L230.52-11.60L244.12-11.60Q243.72-14.24 241.96-15.88L241.96-15.88Q240.08-17.60 237.32-17.60Z M272.60 0L269.60 0L269.60-17.36L265.52-17.36L265.52-20L269.60-20L269.60-27.16L272.60-27.16L272.60-20L277.20-20L277.20-17.36L272.60-17.36L272.60 0Z M284.48-28L287.48-28L287.48-16.88Q288.56-18.32 290.12-19.32Q291.68-20.32 293.68-20.32Q295.68-20.32 297.12-19.76Q298.56-19.20 299.64-18.08L299.64-18.08Q302.12-15.64 302.12-11.64L302.12-11.64L302.12 0L299.12 0L299.12-11.56Q299.12-14.32 297.56-15.96Q296-17.60 293.52-17.60L293.52-17.60Q291-17.60 289.24-15.92L289.24-15.92Q287.48-14.20 287.48-11.52L287.48-11.52L287.48 0L284.48 0L284.48-28Z M320.04-2.40L320.04-2.40Q324.08-2.40 325.84-5.76L325.84-5.76L329.12-5.76Q328.08-3.04 325.82-1.36Q323.56 0.32 320 0.32L320 0.32Q315.48 0.32 312.64-2.68L312.64-2.68Q309.88-5.60 309.88-10L309.88-10Q309.88-14.44 312.52-17.32L312.52-17.32Q315.32-20.32 319.80-20.32L319.80-20.32Q324.28-20.32 327.08-17.32L327.08-17.32Q329.72-14.44 329.72-10L329.72-10L329.72-8.80L312.96-8.80Q313.28-6.04 315.16-4.24L315.16-4.24Q317.08-2.40 320.04-2.40ZM319.80-17.60L319.80-17.60Q317.04-17.60 315.16-15.88L315.16-15.88Q313.40-14.24 313-11.60L313-11.60L326.60-11.60Q326.20-14.24 324.44-15.88L324.44-15.88Q322.56-17.60 319.80-17.60Z M352.92-20L352.92-16.96Q354.92-20.32 359.00-20.32L359.00-20.32Q361.00-20.32 362.70-19.26Q364.40-18.20 365.36-16.28L365.36-16.28Q366.72-18.80 369.60-19.88L369.60-19.88Q370.76-20.32 372.22-20.32Q373.68-20.32 375.02-19.74Q376.36-19.16 377.40-18.08L377.40-18.08Q379.64-15.68 379.64-12.08L379.64-12.08L379.64 0L376.64 0L376.64-12Q376.64-14.48 375.24-16.08L375.24-16.08Q373.84-17.60 371.68-17.60L371.68-17.60Q369.40-17.60 367.88-16.12L367.88-16.12Q366.28-14.60 366.28-11.96L366.28-11.96L366.28 0L363.28 0L363.28-12Q363.28-14.48 361.88-16.08L361.88-16.08Q360.48-17.60 358.32-17.60L358.32-17.60Q356.04-17.60 354.52-16.12L354.52-16.12Q352.92-14.60 352.92-11.96L352.92-11.96L352.92 0L349.92 0L349.92-20L352.92-20Z M397.32-20.32L397.32-20.32Q401.80-20.32 404.60-17.32L404.60-17.32Q407.24-14.44 407.24-10L407.24-10Q407.24-5.56 404.60-2.68L404.60-2.68Q401.80 0.32 397.32 0.32L397.32 0.32Q392.84 0.32 390.04-2.68L390.04-2.68Q387.40-5.56 387.40-10L387.40-10Q387.40-14.44 390.04-17.32L390.04-17.32Q392.84-20.32 397.32-20.32ZM397.32-2.40L397.32-2.40Q400.56-2.40 402.44-4.64L402.44-4.64Q404.24-6.76 404.24-10L404.24-10Q404.24-13.24 402.44-15.36L402.44-15.36Q400.56-17.60 397.32-17.60L397.32-17.60Q394.08-17.60 392.20-15.36L392.20-15.36Q390.40-13.24 390.40-10L390.40-10Q390.40-6.76 392.20-4.64L392.20-4.64Q394.08-2.40 397.32-2.40Z M418.20-20L418.20-16.96Q420.20-20.32 424.28-20.32L424.28-20.32Q426.28-20.32 427.98-19.26Q429.68-18.20 430.64-16.28L430.64-16.28Q432.00-18.80 434.88-19.88L434.88-19.88Q436.04-20.32 437.50-20.32Q438.96-20.32 440.30-19.74Q441.64-19.16 442.68-18.08L442.68-18.08Q444.92-15.68 444.92-12.08L444.92-12.08L444.92 0L441.92 0L441.92-12Q441.92-14.48 440.52-16.08L440.52-16.08Q439.12-17.60 436.96-17.60L436.96-17.60Q434.68-17.60 433.16-16.12L433.16-16.12Q431.56-14.60 431.56-11.96L431.56-11.96L431.56 0L428.56 0L428.56-12Q428.56-14.48 427.16-16.08L427.16-16.08Q425.76-17.60 423.60-17.60L423.60-17.60Q421.32-17.60 419.80-16.12L419.80-16.12Q418.20-14.60 418.20-11.96L418.20-11.96L418.20 0L415.20 0L415.20-20L418.20-20Z M462.84-2.40L462.84-2.40Q466.88-2.40 468.64-5.76L468.64-5.76L471.92-5.76Q470.88-3.04 468.62-1.36Q466.36 0.32 462.80 0.32L462.80 0.32Q458.28 0.32 455.44-2.68L455.44-2.68Q452.68-5.60 452.68-10L452.68-10Q452.68-14.44 455.32-17.32L455.32-17.32Q458.12-20.32 462.60-20.32L462.60-20.32Q467.08-20.32 469.88-17.32L469.88-17.32Q472.52-14.44 472.52-10L472.52-10L472.52-8.80L455.76-8.80Q456.08-6.04 457.96-4.24L457.96-4.24Q459.88-2.40 462.84-2.40ZM462.60-17.60L462.60-17.60Q459.84-17.60 457.96-15.88L457.96-15.88Q456.20-14.24 455.80-11.60L455.80-11.60L469.40-11.60Q469.00-14.24 467.24-15.88L467.24-15.88Q465.36-17.60 462.60-17.60Z M480.20-20L483.20-20L483.20-16.88Q484.28-18.32 485.84-19.32Q487.40-20.32 489.40-20.32Q491.40-20.32 492.84-19.76Q494.28-19.20 495.36-18.08L495.36-18.08Q497.84-15.64 497.84-11.64L497.84-11.64L497.84 0L494.84 0L494.84-11.56Q494.84-14.32 493.28-15.96Q491.72-17.60 489.24-17.60L489.24-17.60Q486.72-17.60 484.96-15.92L484.96-15.92Q483.20-14.20 483.20-11.52L483.20-11.52L483.20 0L480.20 0L480.20-20Z M511.52 0L508.52 0L508.52-17.36L504.44-17.36L504.44-20L508.52-20L508.52-27.16L511.52-27.16L511.52-20L516.12-20L516.12-17.36L511.52-17.36L511.52 0Z"/></g>
</svg>
</g><g filter="url(#ikYEXSHZT)"><g opacity="1" transform="rotate(0 64.4316 228.1154)">
<svg width="396.9822" height="90" x="64.4316" y="228.1154" version="1.1" preserveAspectRatio="none" viewBox="0.5859 -30.2344 214.6876 48.6719">
  <g transform="matrix(1 0 0 1 0 0)" class="icon3"><path id="id-BEGfasMba13" d="M51.95-29.38L51.95-29.38Q51.91-29.08 51.70-28.91Q51.48-28.73 51.21-28.73L51.21-28.73Q51.17-28.73 51.07-28.74Q50.98-28.75 50.63-28.75L50.63-28.75Q50.25-28.75 49.68-28.67Q49.10-28.59 48.41-28.35Q47.71-28.11 46.96-27.64Q46.21-27.17 45.49-26.38Q44.77-25.59 44.12-24.42Q43.48-23.26 43.03-21.62L43.03-21.62Q42.79-20.80 42.49-19.27Q42.19-17.73 41.85-15.82Q41.50-13.91 41.16-11.74Q40.82-9.57 40.52-7.48Q40.21-5.39 39.96-3.51Q39.71-1.62 39.57-0.27L39.57-0.27Q39.53-0.02 39.35 0.19Q39.16 0.39 38.89 0.39L38.89 0.39Q38.61 0.39 38.41 0.25Q38.20 0.12 38.13-0.16L38.13-0.16Q37.87-1.09 37.32-2.75Q36.78-4.41 36.06-6.49Q35.35-8.57 34.51-10.92Q33.67-13.26 32.84-15.56Q32.01-17.85 31.24-19.95Q30.47-22.05 29.88-23.65L29.88-23.65Q29.79-22.56 29.58-21.22Q29.38-19.88 29.03-18.35Q28.69-16.82 28.18-15.11Q27.68-13.40 26.97-11.56L26.97-11.56Q25.88-8.75 24.40-6.76Q22.93-4.77 21.31-3.44Q19.69-2.11 18.02-1.34Q16.35-0.57 14.88-0.18Q13.42 0.21 12.25 0.32Q11.07 0.43 10.45 0.43L10.45 0.43Q8.30 0.43 6.49-0.14Q4.69-0.70 3.37-1.75Q2.05-2.79 1.32-4.25Q0.59-5.70 0.59-7.46L0.59-7.46Q0.59-9.04 1.30-10.42Q2.01-11.80 3.21-12.81Q4.41-13.83 5.97-14.41Q7.52-15 9.20-15L9.20-15Q10.59-15 11.69-14.73Q12.79-14.45 13.64-14.03Q14.49-13.61 15.11-13.13Q15.72-12.64 16.12-12.20Q16.52-11.76 16.73-11.45Q16.93-11.13 16.97-11.07L16.97-11.07Q17.05-10.92 17.05-10.72L17.05-10.72Q17.05-10.45 16.85-10.21Q16.64-9.98 16.31-9.98L16.31-9.98Q15.88-9.98 15.66-10.37L15.66-10.37Q15.64-10.43 15.28-10.93Q14.92-11.43 14.17-12.01Q13.42-12.60 12.23-13.08Q11.04-13.55 9.34-13.55L9.34-13.55Q7.95-13.55 6.63-13.09Q5.31-12.62 4.30-11.80Q3.28-10.98 2.67-9.85Q2.05-8.73 2.05-7.42L2.05-7.42Q2.05-6.00 2.71-4.81Q3.38-3.63 4.52-2.79Q5.66-1.95 7.18-1.49Q8.69-1.04 10.41-1.04L10.41-1.04Q11.07-1.04 12.17-1.13Q13.26-1.23 14.62-1.58Q15.98-1.93 17.48-2.65Q18.98-3.36 20.45-4.59Q21.91-5.82 23.25-7.66Q24.59-9.49 25.61-12.11L25.61-12.11Q26.66-14.80 27.26-17.24Q27.85-19.67 28.14-21.62Q28.44-23.57 28.51-24.95Q28.57-26.33 28.57-26.91L28.57-26.91L28.57-27.30Q28.57-27.62 28.78-27.84Q28.98-28.07 29.32-28.07L29.32-28.07Q29.80-28.07 30-27.58L30-27.58Q30.06-27.44 30.34-26.66Q30.63-25.88 31.08-24.64Q31.54-23.40 32.14-21.78Q32.73-20.16 33.40-18.33Q34.06-16.50 34.77-14.55Q35.47-12.60 36.14-10.70Q36.82-8.81 37.42-7.05Q38.03-5.29 38.52-3.85L38.52-3.85Q38.73-5.41 38.98-7.16Q39.24-8.91 39.52-10.69Q39.80-12.48 40.09-14.20Q40.37-15.92 40.65-17.42Q40.94-18.93 41.17-20.12Q41.41-21.31 41.60-22.03L41.60-22.03Q42.03-23.75 42.83-25.24Q43.63-26.74 44.78-27.85Q45.92-28.96 47.39-29.60Q48.87-30.23 50.66-30.23L50.66-30.23Q51.35-30.23 51.65-30.08Q51.95-29.92 51.95-29.47L51.95-29.47L51.95-29.38Z M54.86-2.15L54.86-2.15Q54.38-2.15 54.00-2.23L54.00-2.23Q53.71-1.64 53.30-1.14Q52.89-0.64 52.35-0.27Q51.82 0.10 51.15 0.31Q50.49 0.53 49.71 0.53L49.71 0.53Q48.79 0.53 48.03 0.21Q47.27-0.12 46.70-0.69Q46.13-1.27 45.82-2.08Q45.51-2.89 45.51-3.87L45.51-3.87Q45.51-5.12 45.96-6.04Q46.41-6.97 46.99-7.59Q47.58-8.20 48.16-8.51Q48.75-8.81 49.04-8.81L49.04-8.81Q49.38-8.81 49.54-8.63Q49.71-8.46 49.71-8.16L49.71-8.16Q49.71-7.83 49.50-7.67Q49.30-7.50 48.98-7.34L48.98-7.34Q48.67-7.19 48.32-6.90Q47.97-6.62 47.67-6.19Q47.36-5.76 47.17-5.18Q46.97-4.59 46.97-3.87L46.97-3.87Q46.97-3.22 47.17-2.67Q47.36-2.11 47.73-1.71Q48.11-1.31 48.61-1.08Q49.12-0.86 49.75-0.86L49.75-0.86Q50.86-0.86 51.59-1.38Q52.32-1.89 52.71-2.70L52.71-2.70Q51.56-3.30 50.82-4.41Q50.08-5.53 50.08-6.91L50.08-6.91Q50.08-8.03 50.62-8.73Q51.15-9.43 52.03-9.43L52.03-9.43Q52.56-9.43 53.03-9.18Q53.50-8.93 53.86-8.38Q54.22-7.83 54.43-6.97Q54.65-6.11 54.65-4.92L54.65-4.92Q54.65-4.30 54.49-3.61L54.49-3.61Q54.61-3.59 54.73-3.59Q54.84-3.59 54.98-3.59L54.98-3.59Q55.64-3.59 56.17-3.75Q56.70-3.91 57.13-4.22Q57.56-4.53 57.90-5.02Q58.24-5.51 58.55-6.15L58.55-6.15Q58.61-6.27 58.81-6.38Q59.00-6.48 59.20-6.48L59.20-6.48Q59.45-6.48 59.68-6.28Q59.90-6.07 59.90-5.74L59.90-5.74Q59.90-5.59 59.82-5.40Q59.75-5.21 59.67-5.06L59.67-5.06Q59.34-4.47 58.90-3.94Q58.46-3.40 57.86-3.00Q57.27-2.60 56.52-2.36Q55.78-2.13 54.86-2.15ZM51.52-7.07L51.52-7.07Q51.52-6.70 51.62-6.29Q51.72-5.88 51.92-5.48Q52.13-5.08 52.43-4.72Q52.73-4.36 53.14-4.10L53.14-4.10Q53.20-4.51 53.20-4.90L53.20-4.90Q53.20-5.43 53.13-5.98Q53.05-6.52 52.90-6.98Q52.75-7.44 52.54-7.72Q52.32-8.01 52.03-8.01L52.03-8.01Q51.91-8.01 51.72-7.83Q51.52-7.66 51.52-7.07Z M60.55-8.03L60.55-8.03Q60.47-7.50 60.35-7.04Q60.23-6.58 60.13-6.24Q60.02-5.90 59.94-5.68Q59.86-5.47 59.84-5.45L59.84-5.45Q59.65-5 59.16-5L59.16-5Q58.89-5 58.65-5.21Q58.42-5.41 58.42-5.72L58.42-5.72Q58.42-5.84 58.46-5.90Q58.50-5.96 58.57-6.13Q58.65-6.31 58.77-6.72Q58.89-7.13 59.06-7.99L59.06-7.99Q58.73-7.99 58.38-8.01Q58.03-8.03 57.72-8.14Q57.42-8.26 57.23-8.52Q57.03-8.77 57.03-9.22L57.03-9.22Q57.03-9.55 57.22-10.12Q57.40-10.68 57.71-11.23Q58.03-11.78 58.42-12.18Q58.81-12.58 59.20-12.58L59.20-12.58Q59.65-12.58 59.93-12.25Q60.21-11.91 60.37-11.44Q60.53-10.96 60.60-10.43Q60.66-9.90 60.66-9.51L60.66-9.51Q61.00-9.51 61.32-9.52Q61.64-9.53 61.93-9.53L61.93-9.53Q63.05-9.53 63.63-9.04Q64.22-8.55 64.22-7.44L64.22-7.44Q64.22-6.99 64.16-6.50Q64.10-6.02 64.02-5.50Q63.95-4.98 63.89-4.47Q63.83-3.96 63.83-3.48L63.83-3.48Q63.83-2.77 64.02-2.31Q64.22-1.86 64.51-1.58Q64.80-1.31 65.14-1.20Q65.47-1.09 65.74-1.09L65.74-1.09Q66.58-1.09 67.32-1.64Q68.07-2.19 68.69-2.96Q69.32-3.73 69.81-4.59Q70.31-5.45 70.64-6.09L70.64-6.09Q70.74-6.27 70.92-6.37Q71.09-6.46 71.29-6.46L71.29-6.46Q71.64-6.46 71.84-6.24Q72.03-6.02 72.03-5.74L72.03-5.74Q72.03-5.55 71.95-5.39L71.95-5.39Q71.50-4.59 70.91-3.58Q70.31-2.58 69.55-1.70Q68.79-0.82 67.84-0.21Q66.89 0.39 65.76 0.39L65.76 0.39Q65.06 0.39 64.43 0.13Q63.81-0.14 63.35-0.63Q62.89-1.13 62.62-1.87Q62.34-2.60 62.34-3.52L62.34-3.52Q62.34-4.49 62.54-5.46Q62.73-6.43 62.73-7.30L62.73-7.30Q62.73-7.68 62.57-7.86Q62.40-8.05 61.84-8.05L61.84-8.05Q61.56-8.05 61.24-8.05Q60.92-8.05 60.55-8.03ZM58.38-9.47L59.24-9.47Q59.24-9.61 59.23-9.83Q59.22-10.06 59.19-10.27Q59.16-10.49 59.11-10.64Q59.06-10.80 59.00-10.80L59.00-10.80Q58.95-10.80 58.86-10.65Q58.77-10.51 58.67-10.30Q58.57-10.10 58.50-9.86Q58.42-9.63 58.38-9.47L58.38-9.47Z M85.72-5.45L85.72-5.45Q85.64-5.29 85.40-4.79Q85.16-4.30 84.78-3.65Q84.39-3.01 83.89-2.30Q83.38-1.60 82.75-1.02Q82.13-0.43 81.41-0.05Q80.68 0.33 79.88 0.33L79.88 0.33Q78.75 0.33 77.98-0.39Q77.21-1.11 76.86-2.21L76.86-2.21Q76.19-1.09 75.27-0.44Q74.36 0.21 73.44 0.21L73.44 0.21Q72.71 0.21 72.13-0.05Q71.54-0.31 71.13-0.79Q70.72-1.27 70.50-1.91Q70.27-2.56 70.27-3.32L70.27-3.32Q70.27-4.84 70.79-6.01Q71.31-7.17 72.11-7.95Q72.91-8.73 73.88-9.12Q74.84-9.51 75.74-9.51L75.74-9.51Q76.35-9.51 76.86-9.35Q77.36-9.18 77.72-8.98Q78.09-8.79 78.28-8.62Q78.48-8.46 78.50-8.44L78.50-8.44Q78.71-8.18 78.71-7.91L78.71-7.91Q78.71-7.62 78.50-7.39Q78.28-7.17 77.99-7.17L77.99-7.17Q77.68-7.17 77.46-7.38L77.46-7.38Q77.42-7.42 77.29-7.53Q77.15-7.64 76.91-7.75Q76.68-7.87 76.36-7.96Q76.04-8.05 75.63-8.05L75.63-8.05Q75.02-8.05 74.34-7.77Q73.65-7.50 73.09-6.92Q72.52-6.35 72.14-5.48Q71.76-4.61 71.76-3.42L71.76-3.42Q71.76-3.05 71.84-2.67Q71.91-2.29 72.11-1.97Q72.30-1.66 72.64-1.46Q72.97-1.27 73.46-1.27L73.46-1.27Q73.81-1.27 74.27-1.50Q74.73-1.74 75.15-2.23Q75.57-2.71 75.91-3.46Q76.25-4.20 76.39-5.21L76.39-5.21Q76.43-5.49 76.64-5.67Q76.86-5.86 77.15-5.86L77.15-5.86Q77.42-5.86 77.63-5.64Q77.83-5.43 77.85-5.16L77.85-5.16Q77.87-4.79 77.93-4.11Q77.99-3.44 78.19-2.77Q78.40-2.11 78.81-1.62Q79.22-1.13 79.94-1.13L79.94-1.13Q80.41-1.13 80.87-1.39Q81.33-1.64 81.77-2.06Q82.21-2.48 82.61-3.02Q83.01-3.55 83.34-4.10Q83.67-4.65 83.93-5.16Q84.18-5.66 84.36-6.04L84.36-6.04Q84.45-6.25 84.64-6.37Q84.82-6.48 85.04-6.48L85.04-6.48Q85.37-6.48 85.58-6.24Q85.78-6.00 85.78-5.72L85.78-5.72Q85.78-5.59 85.72-5.45Z M86.99-26.62L86.54-22.89Q86.50-22.62 86.29-22.43Q86.07-22.25 85.80-22.25L85.80-22.25Q85.53-22.25 85.30-22.46Q85.08-22.68 85.08-23.01L85.08-23.01Q85.08-23.09 85.09-23.17Q85.10-23.26 85.12-23.40L85.12-23.40L85.61-27.46Q85.64-27.75 85.86-27.93Q86.07-28.11 86.35-28.11L86.35-28.11Q86.68-28.11 86.88-27.88Q87.07-27.66 87.07-27.36L87.07-27.36Q87.07-27.29 87.04-27.02Q87.01-26.76 86.99-26.62L86.99-26.62Z M91.43-7.23L91.43-7.23Q91.31-6.91 91.14-6.52Q90.98-6.13 90.76-5.70L90.76-5.70Q90.59-5.37 90.40-5.19Q90.21-5 89.92-5L89.92-5Q89.59-5 89.39-5.21Q89.20-5.41 89.20-5.68L89.20-5.68Q89.20-5.78 89.22-5.85Q89.24-5.92 89.32-6.07L89.32-6.07Q89.82-7.05 90.07-7.78Q90.31-8.52 90.47-9.32L90.47-9.32Q90.33-9.77 90.27-10.08Q90.21-10.39 90.21-10.72L90.21-10.72Q90.21-11.37 90.49-11.77Q90.76-12.17 91.25-12.17L91.25-12.17Q91.70-12.17 91.96-11.78Q92.23-11.39 92.23-10.82L92.23-10.82Q92.23-10.51 92.17-10.20Q92.11-9.88 92.01-9.41L92.01-9.41Q92.46-8.30 92.91-7.44Q93.36-6.58 93.71-5.87Q94.06-5.16 94.29-4.53Q94.51-3.91 94.51-3.28L94.51-3.28Q94.51-2.46 94.18-1.72Q93.85-0.98 93.09-0.47L93.09-0.47Q93.18-0.45 93.28-0.45Q93.38-0.45 93.48-0.45L93.48-0.45Q94.59-0.45 95.53-0.96Q96.46-1.46 97.22-2.28Q97.97-3.09 98.55-4.07Q99.14-5.06 99.57-6.04L99.57-6.04Q99.77-6.48 100.12-6.48L100.12-6.48Q100.45-6.48 100.63-6.25Q100.82-6.02 100.82-5.74L100.82-5.74Q100.82-5.59 100.76-5.45L100.76-5.45Q100.55-4.92 100.21-4.25Q99.86-3.57 99.38-2.86Q98.91-2.15 98.28-1.46Q97.66-0.78 96.88-0.24Q96.11 0.29 95.20 0.62Q94.28 0.94 93.18 0.94L93.18 0.94Q91.88 0.94 90.75 0.48Q89.63 0.02 88.93-1.04L88.93-1.04Q88.81-1.21 88.81-1.41L88.81-1.41Q88.81-1.70 89.03-1.92Q89.26-2.15 89.55-2.15L89.55-2.15Q89.86-2.15 90.08-1.93L90.08-1.93Q90.10-1.89 90.21-1.81Q90.33-1.72 90.50-1.61Q90.66-1.50 90.89-1.43Q91.11-1.35 91.35-1.35L91.35-1.35Q91.82-1.35 92.14-1.54Q92.46-1.74 92.66-2.02Q92.85-2.30 92.94-2.63Q93.03-2.95 93.03-3.18L93.03-3.18Q93.03-3.67 92.87-4.16Q92.71-4.65 92.47-5.14Q92.23-5.63 91.94-6.14Q91.66-6.66 91.43-7.23Z M144.14-13.57L144.14-13.57Q145.82-13.11 147.00-12.50Q148.18-11.89 148.99-11.24Q149.80-10.59 150.27-9.90Q150.74-9.22 151.00-8.59Q151.25-7.97 151.32-7.43Q151.39-6.89 151.39-6.52L151.39-6.52Q151.39-5.16 150.87-4.08Q150.35-3.01 149.47-2.19Q148.59-1.37 147.43-0.80Q146.27-0.23 145 0.13Q143.73 0.49 142.40 0.65Q141.07 0.82 139.88 0.82L139.88 0.82Q137.95 0.82 135.89 0.43Q133.83 0.04 131.72-0.84L131.72-0.84Q131.25-1.04 131.25-1.52L131.25-1.52Q131.25-1.86 131.48-2.06Q131.72-2.27 131.99-2.27L131.99-2.27Q132.13-2.27 132.29-2.21L132.29-2.21Q134.10-1.45 136.02-1.05Q137.93-0.66 139.86-0.66L139.86-0.66Q142.50-0.66 144.39-1.17Q146.29-1.68 147.51-2.51Q148.73-3.34 149.32-4.38Q149.90-5.43 149.90-6.50L149.90-6.50Q149.90-7.70 149.25-8.71Q148.59-9.73 147.39-10.53Q146.19-11.33 144.51-11.89Q142.83-12.46 140.78-12.73L140.78-12.73Q139.43-12.50 138.16-12.40Q136.89-12.30 135.82-12.30L135.82-12.30L135.37-12.30Q135.23-12.30 135.12-12.32L135.12-12.32Q133.71-8.95 131.77-6.48Q129.82-4.02 127.63-2.41Q125.43-0.80 123.12-0.03Q120.80 0.74 118.67 0.74L118.67 0.74Q116.46 0.74 114.62 0.13Q112.77-0.49 111.45-1.62Q110.12-2.75 109.38-4.37Q108.63-5.98 108.63-7.97L108.63-7.97Q108.63-10.04 109.44-12.26Q110.25-14.47 111.86-16.76L111.86-16.76Q113.38-18.91 115.23-20.62Q117.09-22.32 119.13-23.61Q121.17-24.90 123.34-25.82Q125.51-26.74 127.65-27.32Q129.79-27.91 131.83-28.17Q133.87-28.44 135.66-28.44L135.66-28.44Q137.13-28.44 138.46-28.34Q139.79-28.24 141.00-28.05L141.00-28.05Q141.70-28.83 142.13-29.17Q142.56-29.51 142.62-29.55L142.62-29.55Q142.85-29.67 143.03-29.67L143.03-29.67Q143.30-29.67 143.52-29.51Q143.73-29.36 143.73-29.06L143.73-29.06Q143.73-28.67 143.46-28.41Q143.18-28.14 142.71-27.70L142.71-27.70Q146.29-26.82 148.18-25.05Q150.08-23.28 150.08-20.68L150.08-20.68Q150.08-19.26 149.61-18.13Q149.14-16.99 148.33-16.13Q147.52-15.27 146.44-14.64Q145.35-14.00 144.14-13.57ZM140.80-14.22L140.80-14.22Q141.66-14.38 142.57-14.63Q143.48-14.88 144.35-15.24Q145.21-15.61 146.00-16.10Q146.78-16.60 147.35-17.28Q147.93-17.95 148.27-18.79Q148.61-19.63 148.61-20.70L148.61-20.70Q148.61-22.89 146.80-24.32Q144.98-25.74 141.58-26.43L141.58-26.43Q140.61-25.21 139.75-23.75Q138.89-22.29 138.16-20.71Q137.44-19.14 136.87-17.53Q136.29-15.92 135.92-14.41L135.92-14.41Q136.31-14.43 136.64-14.43Q136.97-14.43 137.21-14.43L137.21-14.43Q137.97-14.43 138.87-14.38Q139.77-14.34 140.80-14.22ZM139.92-26.70L139.92-26.70Q138.93-26.84 137.87-26.89Q136.82-26.95 135.66-26.95L135.66-26.95Q133.95-26.95 132.01-26.70Q130.08-26.45 128.05-25.90Q126.02-25.35 123.96-24.48Q121.89-23.61 119.95-22.39Q118.01-21.17 116.25-19.55Q114.49-17.93 113.05-15.90L113.05-15.90Q111.58-13.83 110.84-11.82Q110.10-9.80 110.10-7.99L110.10-7.99Q110.10-6.29 110.71-4.94Q111.33-3.59 112.46-2.67Q113.59-1.74 115.18-1.24Q116.76-0.74 118.67-0.74L118.67-0.74Q120.59-0.74 122.66-1.44Q124.73-2.13 126.70-3.56Q128.67-5 130.45-7.20Q132.23-9.39 133.55-12.42L133.55-12.42Q133.20-12.42 132.83-12.63Q132.46-12.83 132.46-13.28L132.46-13.28Q132.46-13.75 132.91-13.96Q133.36-14.16 134.32-14.30L134.32-14.30Q134.84-15.90 135.39-17.50Q135.94-19.10 136.60-20.66Q137.27-22.23 138.07-23.74Q138.87-25.25 139.92-26.70Z M156.62-2.15L156.62-2.15Q157.03-1.58 157.68-1.24Q158.32-0.90 159.26-0.90L159.26-0.90Q160.21-0.90 161.00-1.36Q161.78-1.82 162.42-2.56Q163.07-3.30 163.57-4.22Q164.08-5.14 164.49-6.05L164.49-6.05Q164.59-6.27 164.77-6.38Q164.94-6.48 165.16-6.48L165.16-6.48Q165.49-6.48 165.69-6.25Q165.90-6.02 165.90-5.74L165.90-5.74Q165.90-5.64 165.88-5.58Q165.86-5.51 165.82-5.43L165.82-5.43Q164.47-2.46 162.88-0.96Q161.29 0.55 159.28 0.59L159.28 0.59Q157.99 0.59 157.05 0.09Q156.11-0.41 155.51-1.20Q154.90-1.99 154.61-2.99Q154.32-3.98 154.32-4.98L154.32-4.98Q154.32-5.98 154.56-6.82Q154.80-7.66 155.26-8.28Q155.72-8.91 156.36-9.26Q156.99-9.61 157.75-9.61L157.75-9.61Q158.20-9.61 158.64-9.42Q159.08-9.24 159.43-8.90Q159.79-8.55 160-8.07Q160.21-7.58 160.21-6.95L160.21-6.95Q160.21-6.15 159.94-5.45Q159.67-4.75 159.19-4.14Q158.71-3.54 158.05-3.03Q157.38-2.52 156.62-2.15ZM156.04-3.42L156.04-3.42Q156.64-3.67 157.14-4.06Q157.64-4.45 157.99-4.92Q158.34-5.39 158.54-5.91Q158.73-6.43 158.73-6.95L158.73-6.95Q158.73-7.54 158.44-7.84Q158.14-8.14 157.75-8.14L157.75-8.14Q157.23-8.14 156.86-7.85Q156.48-7.56 156.25-7.09Q156.02-6.62 155.91-6.04Q155.80-5.47 155.80-4.90L155.80-4.90Q155.80-4.55 155.87-4.16Q155.94-3.77 156.04-3.42Z M179.59-5.45L179.59-5.45Q179.51-5.29 179.27-4.79Q179.02-4.30 178.64-3.65Q178.26-3.01 177.75-2.30Q177.25-1.60 176.62-1.02Q176.00-0.43 175.27-0.05Q174.55 0.33 173.75 0.33L173.75 0.33Q172.62 0.33 171.85-0.39Q171.07-1.11 170.72-2.21L170.72-2.21Q170.06-1.09 169.14-0.44Q168.22 0.21 167.30 0.21L167.30 0.21Q166.58 0.21 166.00-0.05Q165.41-0.31 165-0.79Q164.59-1.27 164.37-1.91Q164.14-2.56 164.14-3.32L164.14-3.32Q164.14-4.84 164.66-6.01Q165.18-7.17 165.98-7.95Q166.78-8.73 167.74-9.12Q168.71-9.51 169.61-9.51L169.61-9.51Q170.21-9.51 170.72-9.35Q171.23-9.18 171.59-8.98Q171.95-8.79 172.15-8.62Q172.34-8.46 172.36-8.44L172.36-8.44Q172.58-8.18 172.58-7.91L172.58-7.91Q172.58-7.62 172.36-7.39Q172.15-7.17 171.86-7.17L171.86-7.17Q171.54-7.17 171.33-7.38L171.33-7.38Q171.29-7.42 171.15-7.53Q171.02-7.64 170.78-7.75Q170.55-7.87 170.22-7.96Q169.90-8.05 169.49-8.05L169.49-8.05Q168.89-8.05 168.20-7.77Q167.52-7.50 166.95-6.92Q166.39-6.35 166.01-5.48Q165.63-4.61 165.63-3.42L165.63-3.42Q165.63-3.05 165.70-2.67Q165.78-2.29 165.98-1.97Q166.17-1.66 166.50-1.46Q166.84-1.27 167.32-1.27L167.32-1.27Q167.68-1.27 168.13-1.50Q168.59-1.74 169.01-2.23Q169.43-2.71 169.78-3.46Q170.12-4.20 170.25-5.21L170.25-5.21Q170.29-5.49 170.51-5.67Q170.72-5.86 171.02-5.86L171.02-5.86Q171.29-5.86 171.49-5.64Q171.70-5.43 171.72-5.16L171.72-5.16Q171.74-4.79 171.80-4.11Q171.86-3.44 172.06-2.77Q172.27-2.11 172.68-1.62Q173.09-1.13 173.81-1.13L173.81-1.13Q174.28-1.13 174.74-1.39Q175.20-1.64 175.63-2.06Q176.07-2.48 176.47-3.02Q176.88-3.55 177.21-4.10Q177.54-4.65 177.79-5.16Q178.05-5.66 178.22-6.04L178.22-6.04Q178.32-6.25 178.51-6.37Q178.69-6.48 178.91-6.48L178.91-6.48Q179.24-6.48 179.44-6.24Q179.65-6.00 179.65-5.72L179.65-5.72Q179.65-5.59 179.59-5.45Z M184.73-2.19L184.73-2.19Q184.04-1.07 183.13-0.43Q182.23 0.21 181.31 0.21L181.31 0.21Q180.57 0.21 179.98-0.06Q179.39-0.33 178.96-0.83Q178.54-1.33 178.31-2.03Q178.09-2.73 178.09-3.61L178.09-3.61Q178.09-4.98 178.35-6.04Q178.61-7.09 178.93-7.80Q179.24-8.52 179.51-8.89Q179.79-9.26 179.79-9.26L179.79-9.26Q179.88-9.38 180.03-9.43Q180.18-9.49 180.33-9.49L180.33-9.49Q180.64-9.49 180.85-9.27Q181.05-9.04 181.05-8.75L181.05-8.75Q181.05-8.63 181.01-8.52Q180.96-8.40 180.90-8.28L180.90-8.28Q180.80-8.11 180.59-7.74Q180.37-7.38 180.14-6.80Q179.90-6.21 179.73-5.42Q179.55-4.63 179.55-3.61L179.55-3.61Q179.55-2.46 180.01-1.87Q180.47-1.27 181.31-1.27L181.31-1.27Q181.66-1.27 182.12-1.49Q182.58-1.72 183.02-2.19Q183.46-2.66 183.79-3.38Q184.12-4.10 184.22-5.08L184.22-5.08L184.51-8.44Q184.55-8.73 184.77-8.93Q184.98-9.12 185.27-9.12L185.27-9.12Q185.61-9.12 185.80-8.88Q186.00-8.63 186.00-8.32L186.00-8.32L185.74-5.08Q185.70-4.67 185.77-4.00Q185.84-3.34 186.05-2.70Q186.27-2.05 186.70-1.59Q187.13-1.13 187.83-1.13L187.83-1.13Q188.34-1.13 188.83-1.40Q189.32-1.66 189.77-2.09Q190.21-2.52 190.60-3.06Q190.98-3.59 191.30-4.14Q191.62-4.69 191.86-5.19Q192.09-5.68 192.25-6.04L192.25-6.04Q192.34-6.25 192.52-6.37Q192.70-6.48 192.91-6.48L192.91-6.48Q193.26-6.48 193.46-6.25Q193.65-6.02 193.65-5.74L193.65-5.74Q193.65-5.59 193.59-5.45L193.59-5.45Q193.52-5.29 193.29-4.79Q193.07-4.30 192.71-3.66Q192.34-3.03 191.84-2.32Q191.33-1.62 190.70-1.03Q190.08-0.43 189.35-0.05Q188.61 0.33 187.77 0.33L187.77 0.33Q186.62 0.33 185.86-0.32Q185.10-0.98 184.73-2.19Z M208.07-19.55L208.07-19.55Q208.07-19.24 207.85-19.05Q207.64-18.87 207.32-18.87L207.32-18.87L197.42-18.87L197.42-18.65Q197.42-17.46 197.25-16.11Q197.07-14.77 196.77-13.43Q196.46-12.09 196.08-10.82Q195.70-9.55 195.30-8.48Q194.90-7.40 194.51-6.61Q194.12-5.82 193.81-5.43L193.81-5.43Q194.06-4.53 194.41-3.76Q194.77-2.99 195.21-2.41Q195.64-1.84 196.15-1.50Q196.66-1.17 197.25-1.17L197.25-1.17Q197.93-1.17 198.60-1.75Q199.28-2.32 199.85-3.12Q200.43-3.91 200.87-4.72Q201.31-5.53 201.50-6.02L201.50-6.02Q201.70-6.48 202.19-6.48L202.19-6.48Q202.52-6.48 202.72-6.25Q202.93-6.02 202.93-5.74L202.93-5.74Q202.93-5.61 202.87-5.47L202.87-5.47Q202.81-5.33 202.59-4.84Q202.36-4.36 202.00-3.71Q201.64-3.07 201.16-2.35Q200.68-1.64 200.09-1.05Q199.49-0.47 198.81-0.08Q198.13 0.31 197.36 0.31L197.36 0.31Q196.02 0.31 194.94-0.57Q193.87-1.45 193.12-3.03Q192.36-4.61 191.97-6.78Q191.58-8.95 191.58-11.52L191.58-11.52Q191.58-12.17 191.60-13.04Q191.62-13.91 191.68-14.87Q191.74-15.84 191.86-16.87Q191.97-17.89 192.17-18.87L192.17-18.87L185.16-18.87Q184.84-18.87 184.63-19.05Q184.41-19.24 184.41-19.55L184.41-19.55Q184.41-19.86 184.63-20.05Q184.84-20.23 185.16-20.23L185.16-20.23L192.50-20.23Q192.70-20.94 192.96-21.52Q193.22-22.11 193.56-22.54Q193.91-22.97 194.33-23.21Q194.75-23.46 195.25-23.46L195.25-23.46Q195.74-23.46 196.10-23.21Q196.46-22.97 196.72-22.54Q196.97-22.11 197.12-21.52Q197.27-20.94 197.34-20.23L197.34-20.23L207.32-20.23Q207.64-20.23 207.85-20.05Q208.07-19.86 208.07-19.55ZM193.36-7.38L193.36-7.38Q193.95-8.67 194.42-10.17Q194.90-11.66 195.24-13.18Q195.59-14.71 195.77-16.17Q195.96-17.64 195.96-18.87L195.96-18.87L193.65-18.87Q193.38-17.66 193.21-15.87Q193.05-14.08 193.05-11.52L193.05-11.52Q193.05-10.10 193.13-9.13Q193.20-8.16 193.36-7.38ZM195.18-21.99L195.18-21.99Q195-21.99 194.67-21.61Q194.34-21.23 194.00-20.23L194.00-20.23L195.88-20.23Q195.78-21.05 195.60-21.52Q195.41-21.99 195.18-21.99ZM193.67-5.96L193.67-5.98L193.67-5.96Z M208.85 0.27L208.85 0.27Q209.53-0.41 210.23-1.12Q210.94-1.84 211.60-2.62Q212.27-3.40 212.84-4.25Q213.42-5.10 213.87-6.05L213.87-6.05Q213.96-6.27 214.14-6.38Q214.32-6.48 214.53-6.48L214.53-6.48Q214.86-6.48 215.07-6.25Q215.27-6.02 215.27-5.72L215.27-5.72Q215.27-5.57 215.21-5.43L215.21-5.43Q214.61-4.16 213.83-3.11Q213.05-2.05 212.19-1.10Q211.33-0.16 210.45 0.73Q209.57 1.62 208.77 2.52L208.77 2.52Q208.69 3.87 208.77 5.22Q208.85 6.58 208.85 8.11L208.85 8.11Q208.85 9.36 208.77 10.61Q208.69 11.86 208.52 13.00Q208.34 14.14 208.04 15.14Q207.73 16.13 207.27 16.87Q206.80 17.60 206.17 18.02Q205.55 18.44 204.71 18.44L204.71 18.44Q203.32 18.44 202.58 17.48Q201.84 16.52 201.84 14.80L201.84 14.80Q201.84 13.87 202.04 12.79Q202.25 11.72 202.62 10.58Q202.99 9.43 203.51 8.26Q204.02 7.09 204.63 5.98Q205.23 4.86 205.92 3.86Q206.60 2.85 207.30 2.03L207.30 2.03Q207.34 1.09 207.39 0.09Q207.44-0.92 207.50-1.78L207.50-1.78Q206.99-0.88 206.24-0.33Q205.49 0.21 204.59 0.21L204.59 0.21Q203.11 0.21 202.27-0.78Q201.43-1.78 201.43-3.52L201.43-3.52Q201.43-4.79 201.67-5.83Q201.91-6.88 202.20-7.63Q202.48-8.38 202.71-8.78Q202.95-9.18 202.95-9.16L202.95-9.16Q203.16-9.49 203.55-9.49L203.55-9.49Q203.89-9.49 204.09-9.27Q204.30-9.04 204.30-8.75L204.30-8.75Q204.30-8.54 204.18-8.36L204.18-8.36Q204.20-8.38 203.99-8.04Q203.79-7.70 203.54-7.05Q203.30-6.41 203.10-5.51Q202.89-4.61 202.89-3.54L202.89-3.54Q202.89-2.46 203.28-1.86Q203.67-1.25 204.55-1.25L204.55-1.25Q205.66-1.25 206.56-2.90Q207.46-4.55 208.09-7.70L208.09-7.70Q208.13-7.95 208.32-8.12Q208.52-8.28 208.79-8.28L208.79-8.28Q209.10-8.28 209.32-8.07Q209.53-7.85 209.53-7.54L209.53-7.54Q209.53-7.48 209.45-6.85Q209.38-6.21 209.27-5.16Q209.16-4.10 209.04-2.71Q208.93-1.31 208.85 0.27ZM207.29 4.41L207.29 4.41Q206.41 5.68 205.67 7.09Q204.94 8.50 204.41 9.88Q203.89 11.27 203.59 12.54Q203.30 13.81 203.30 14.80L203.30 14.80Q203.30 15.82 203.63 16.40Q203.96 16.97 204.69 16.97L204.69 16.97Q205.33 16.97 205.83 16.34Q206.33 15.70 206.67 14.53Q207.01 13.36 207.19 11.69Q207.36 10.02 207.36 7.95L207.36 7.95Q207.36 7.11 207.33 6.25Q207.30 5.39 207.29 4.41Z"/></g>
</svg>
</g></g><g filter="url(#tUk6sjh6M)"><g opacity="1" transform="rotate(0 64.421 228.1154)">
<svg width="397.0033" height="90" x="64.421" y="228.1154" version="1.1" preserveAspectRatio="none" viewBox="0.5859 -30.2344 214.6876 48.6719">
  <g transform="matrix(1 0 0 1 0 0)" class="companyName"><path id="id-D6z1nYkh13" d="M51.95-29.38L51.95-29.38Q51.91-29.08 51.70-28.91Q51.48-28.73 51.21-28.73L51.21-28.73Q51.17-28.73 51.07-28.74Q50.98-28.75 50.63-28.75L50.63-28.75Q50.25-28.75 49.68-28.67Q49.10-28.59 48.41-28.35Q47.71-28.11 46.96-27.64Q46.21-27.17 45.49-26.38Q44.77-25.59 44.12-24.42Q43.48-23.26 43.03-21.62L43.03-21.62Q42.79-20.80 42.49-19.27Q42.19-17.73 41.85-15.82Q41.50-13.91 41.16-11.74Q40.82-9.57 40.52-7.48Q40.21-5.39 39.96-3.51Q39.71-1.62 39.57-0.27L39.57-0.27Q39.53-0.02 39.35 0.19Q39.16 0.39 38.89 0.39L38.89 0.39Q38.61 0.39 38.41 0.25Q38.20 0.12 38.13-0.16L38.13-0.16Q37.87-1.09 37.32-2.75Q36.78-4.41 36.06-6.49Q35.35-8.57 34.51-10.92Q33.67-13.26 32.84-15.56Q32.01-17.85 31.24-19.95Q30.47-22.05 29.88-23.65L29.88-23.65Q29.79-22.56 29.58-21.22Q29.38-19.88 29.03-18.35Q28.69-16.82 28.18-15.11Q27.68-13.40 26.97-11.56L26.97-11.56Q25.88-8.75 24.40-6.76Q22.93-4.77 21.31-3.44Q19.69-2.11 18.02-1.34Q16.35-0.57 14.88-0.18Q13.42 0.21 12.25 0.32Q11.07 0.43 10.45 0.43L10.45 0.43Q8.30 0.43 6.49-0.14Q4.69-0.70 3.37-1.75Q2.05-2.79 1.32-4.25Q0.59-5.70 0.59-7.46L0.59-7.46Q0.59-9.04 1.30-10.42Q2.01-11.80 3.21-12.81Q4.41-13.83 5.97-14.41Q7.52-15 9.20-15L9.20-15Q10.59-15 11.69-14.73Q12.79-14.45 13.64-14.03Q14.49-13.61 15.11-13.13Q15.72-12.64 16.12-12.20Q16.52-11.76 16.73-11.45Q16.93-11.13 16.97-11.07L16.97-11.07Q17.05-10.92 17.05-10.72L17.05-10.72Q17.05-10.45 16.85-10.21Q16.64-9.98 16.31-9.98L16.31-9.98Q15.88-9.98 15.66-10.37L15.66-10.37Q15.64-10.43 15.28-10.93Q14.92-11.43 14.17-12.01Q13.42-12.60 12.23-13.08Q11.04-13.55 9.34-13.55L9.34-13.55Q7.95-13.55 6.63-13.09Q5.31-12.62 4.30-11.80Q3.28-10.98 2.67-9.85Q2.05-8.73 2.05-7.42L2.05-7.42Q2.05-6.00 2.71-4.81Q3.38-3.63 4.52-2.79Q5.66-1.95 7.18-1.49Q8.69-1.04 10.41-1.04L10.41-1.04Q11.07-1.04 12.17-1.13Q13.26-1.23 14.62-1.58Q15.98-1.93 17.48-2.65Q18.98-3.36 20.45-4.59Q21.91-5.82 23.25-7.66Q24.59-9.49 25.61-12.11L25.61-12.11Q26.66-14.80 27.26-17.24Q27.85-19.67 28.14-21.62Q28.44-23.57 28.51-24.95Q28.57-26.33 28.57-26.91L28.57-26.91L28.57-27.30Q28.57-27.62 28.78-27.84Q28.98-28.07 29.32-28.07L29.32-28.07Q29.80-28.07 30-27.58L30-27.58Q30.06-27.44 30.34-26.66Q30.63-25.88 31.08-24.64Q31.54-23.40 32.14-21.78Q32.73-20.16 33.40-18.33Q34.06-16.50 34.77-14.55Q35.47-12.60 36.14-10.70Q36.82-8.81 37.42-7.05Q38.03-5.29 38.52-3.85L38.52-3.85Q38.73-5.41 38.98-7.16Q39.24-8.91 39.52-10.69Q39.80-12.48 40.09-14.20Q40.37-15.92 40.65-17.42Q40.94-18.93 41.17-20.12Q41.41-21.31 41.60-22.03L41.60-22.03Q42.03-23.75 42.83-25.24Q43.63-26.74 44.78-27.85Q45.92-28.96 47.39-29.60Q48.87-30.23 50.66-30.23L50.66-30.23Q51.35-30.23 51.65-30.08Q51.95-29.92 51.95-29.47L51.95-29.47L51.95-29.38Z M54.86-2.15L54.86-2.15Q54.38-2.15 54.00-2.23L54.00-2.23Q53.71-1.64 53.30-1.14Q52.89-0.64 52.35-0.27Q51.82 0.10 51.15 0.31Q50.49 0.53 49.71 0.53L49.71 0.53Q48.79 0.53 48.03 0.21Q47.27-0.12 46.70-0.69Q46.13-1.27 45.82-2.08Q45.51-2.89 45.51-3.87L45.51-3.87Q45.51-5.12 45.96-6.04Q46.41-6.97 46.99-7.59Q47.58-8.20 48.16-8.51Q48.75-8.81 49.04-8.81L49.04-8.81Q49.38-8.81 49.54-8.63Q49.71-8.46 49.71-8.16L49.71-8.16Q49.71-7.83 49.50-7.67Q49.30-7.50 48.98-7.34L48.98-7.34Q48.67-7.19 48.32-6.90Q47.97-6.62 47.67-6.19Q47.36-5.76 47.17-5.18Q46.97-4.59 46.97-3.87L46.97-3.87Q46.97-3.22 47.17-2.67Q47.36-2.11 47.73-1.71Q48.11-1.31 48.61-1.08Q49.12-0.86 49.75-0.86L49.75-0.86Q50.86-0.86 51.59-1.38Q52.32-1.89 52.71-2.70L52.71-2.70Q51.56-3.30 50.82-4.41Q50.08-5.53 50.08-6.91L50.08-6.91Q50.08-8.03 50.62-8.73Q51.15-9.43 52.03-9.43L52.03-9.43Q52.56-9.43 53.03-9.18Q53.50-8.93 53.86-8.38Q54.22-7.83 54.43-6.97Q54.65-6.11 54.65-4.92L54.65-4.92Q54.65-4.30 54.49-3.61L54.49-3.61Q54.61-3.59 54.73-3.59Q54.84-3.59 54.98-3.59L54.98-3.59Q55.64-3.59 56.17-3.75Q56.70-3.91 57.13-4.22Q57.56-4.53 57.90-5.02Q58.24-5.51 58.55-6.15L58.55-6.15Q58.61-6.27 58.81-6.38Q59.00-6.48 59.20-6.48L59.20-6.48Q59.45-6.48 59.68-6.28Q59.90-6.07 59.90-5.74L59.90-5.74Q59.90-5.59 59.82-5.40Q59.75-5.21 59.67-5.06L59.67-5.06Q59.34-4.47 58.90-3.94Q58.46-3.40 57.86-3.00Q57.27-2.60 56.52-2.36Q55.78-2.13 54.86-2.15ZM51.52-7.07L51.52-7.07Q51.52-6.70 51.62-6.29Q51.72-5.88 51.92-5.48Q52.13-5.08 52.43-4.72Q52.73-4.36 53.14-4.10L53.14-4.10Q53.20-4.51 53.20-4.90L53.20-4.90Q53.20-5.43 53.13-5.98Q53.05-6.52 52.90-6.98Q52.75-7.44 52.54-7.72Q52.32-8.01 52.03-8.01L52.03-8.01Q51.91-8.01 51.72-7.83Q51.52-7.66 51.52-7.07Z M60.55-8.03L60.55-8.03Q60.47-7.50 60.35-7.04Q60.23-6.58 60.13-6.24Q60.02-5.90 59.94-5.68Q59.86-5.47 59.84-5.45L59.84-5.45Q59.65-5 59.16-5L59.16-5Q58.89-5 58.65-5.21Q58.42-5.41 58.42-5.72L58.42-5.72Q58.42-5.84 58.46-5.90Q58.50-5.96 58.57-6.13Q58.65-6.31 58.77-6.72Q58.89-7.13 59.06-7.99L59.06-7.99Q58.73-7.99 58.38-8.01Q58.03-8.03 57.72-8.14Q57.42-8.26 57.23-8.52Q57.03-8.77 57.03-9.22L57.03-9.22Q57.03-9.55 57.22-10.12Q57.40-10.68 57.71-11.23Q58.03-11.78 58.42-12.18Q58.81-12.58 59.20-12.58L59.20-12.58Q59.65-12.58 59.93-12.25Q60.21-11.91 60.37-11.44Q60.53-10.96 60.60-10.43Q60.66-9.90 60.66-9.51L60.66-9.51Q61.00-9.51 61.32-9.52Q61.64-9.53 61.93-9.53L61.93-9.53Q63.05-9.53 63.63-9.04Q64.22-8.55 64.22-7.44L64.22-7.44Q64.22-6.99 64.16-6.50Q64.10-6.02 64.02-5.50Q63.95-4.98 63.89-4.47Q63.83-3.96 63.83-3.48L63.83-3.48Q63.83-2.77 64.02-2.31Q64.22-1.86 64.51-1.58Q64.80-1.31 65.14-1.20Q65.47-1.09 65.74-1.09L65.74-1.09Q66.58-1.09 67.32-1.64Q68.07-2.19 68.69-2.96Q69.32-3.73 69.81-4.59Q70.31-5.45 70.64-6.09L70.64-6.09Q70.74-6.27 70.92-6.37Q71.09-6.46 71.29-6.46L71.29-6.46Q71.64-6.46 71.84-6.24Q72.03-6.02 72.03-5.74L72.03-5.74Q72.03-5.55 71.95-5.39L71.95-5.39Q71.50-4.59 70.91-3.58Q70.31-2.58 69.55-1.70Q68.79-0.82 67.84-0.21Q66.89 0.39 65.76 0.39L65.76 0.39Q65.06 0.39 64.43 0.13Q63.81-0.14 63.35-0.63Q62.89-1.13 62.62-1.87Q62.34-2.60 62.34-3.52L62.34-3.52Q62.34-4.49 62.54-5.46Q62.73-6.43 62.73-7.30L62.73-7.30Q62.73-7.68 62.57-7.86Q62.40-8.05 61.84-8.05L61.84-8.05Q61.56-8.05 61.24-8.05Q60.92-8.05 60.55-8.03ZM58.38-9.47L59.24-9.47Q59.24-9.61 59.23-9.83Q59.22-10.06 59.19-10.27Q59.16-10.49 59.11-10.64Q59.06-10.80 59.00-10.80L59.00-10.80Q58.95-10.80 58.86-10.65Q58.77-10.51 58.67-10.30Q58.57-10.10 58.50-9.86Q58.42-9.63 58.38-9.47L58.38-9.47Z M85.72-5.45L85.72-5.45Q85.64-5.29 85.40-4.79Q85.16-4.30 84.78-3.65Q84.39-3.01 83.89-2.30Q83.38-1.60 82.75-1.02Q82.13-0.43 81.41-0.05Q80.68 0.33 79.88 0.33L79.88 0.33Q78.75 0.33 77.98-0.39Q77.21-1.11 76.86-2.21L76.86-2.21Q76.19-1.09 75.27-0.44Q74.36 0.21 73.44 0.21L73.44 0.21Q72.71 0.21 72.13-0.05Q71.54-0.31 71.13-0.79Q70.72-1.27 70.50-1.91Q70.27-2.56 70.27-3.32L70.27-3.32Q70.27-4.84 70.79-6.01Q71.31-7.17 72.11-7.95Q72.91-8.73 73.88-9.12Q74.84-9.51 75.74-9.51L75.74-9.51Q76.35-9.51 76.86-9.35Q77.36-9.18 77.72-8.98Q78.09-8.79 78.28-8.62Q78.48-8.46 78.50-8.44L78.50-8.44Q78.71-8.18 78.71-7.91L78.71-7.91Q78.71-7.62 78.50-7.39Q78.28-7.17 77.99-7.17L77.99-7.17Q77.68-7.17 77.46-7.38L77.46-7.38Q77.42-7.42 77.29-7.53Q77.15-7.64 76.91-7.75Q76.68-7.87 76.36-7.96Q76.04-8.05 75.63-8.05L75.63-8.05Q75.02-8.05 74.34-7.77Q73.65-7.50 73.09-6.92Q72.52-6.35 72.14-5.48Q71.76-4.61 71.76-3.42L71.76-3.42Q71.76-3.05 71.84-2.67Q71.91-2.29 72.11-1.97Q72.30-1.66 72.64-1.46Q72.97-1.27 73.46-1.27L73.46-1.27Q73.81-1.27 74.27-1.50Q74.73-1.74 75.15-2.23Q75.57-2.71 75.91-3.46Q76.25-4.20 76.39-5.21L76.39-5.21Q76.43-5.49 76.64-5.67Q76.86-5.86 77.15-5.86L77.15-5.86Q77.42-5.86 77.63-5.64Q77.83-5.43 77.85-5.16L77.85-5.16Q77.87-4.79 77.93-4.11Q77.99-3.44 78.19-2.77Q78.40-2.11 78.81-1.62Q79.22-1.13 79.94-1.13L79.94-1.13Q80.41-1.13 80.87-1.39Q81.33-1.64 81.77-2.06Q82.21-2.48 82.61-3.02Q83.01-3.55 83.34-4.10Q83.67-4.65 83.93-5.16Q84.18-5.66 84.36-6.04L84.36-6.04Q84.45-6.25 84.64-6.37Q84.82-6.48 85.04-6.48L85.04-6.48Q85.37-6.48 85.58-6.24Q85.78-6.00 85.78-5.72L85.78-5.72Q85.78-5.59 85.72-5.45Z M86.99-26.62L86.54-22.89Q86.50-22.62 86.29-22.43Q86.07-22.25 85.80-22.25L85.80-22.25Q85.53-22.25 85.30-22.46Q85.08-22.68 85.08-23.01L85.08-23.01Q85.08-23.09 85.09-23.17Q85.10-23.26 85.12-23.40L85.12-23.40L85.61-27.46Q85.64-27.75 85.86-27.93Q86.07-28.11 86.35-28.11L86.35-28.11Q86.68-28.11 86.88-27.88Q87.07-27.66 87.07-27.36L87.07-27.36Q87.07-27.29 87.04-27.02Q87.01-26.76 86.99-26.62L86.99-26.62Z M91.43-7.23L91.43-7.23Q91.31-6.91 91.14-6.52Q90.98-6.13 90.76-5.70L90.76-5.70Q90.59-5.37 90.40-5.19Q90.21-5 89.92-5L89.92-5Q89.59-5 89.39-5.21Q89.20-5.41 89.20-5.68L89.20-5.68Q89.20-5.78 89.22-5.85Q89.24-5.92 89.32-6.07L89.32-6.07Q89.82-7.05 90.07-7.78Q90.31-8.52 90.47-9.32L90.47-9.32Q90.33-9.77 90.27-10.08Q90.21-10.39 90.21-10.72L90.21-10.72Q90.21-11.37 90.49-11.77Q90.76-12.17 91.25-12.17L91.25-12.17Q91.70-12.17 91.96-11.78Q92.23-11.39 92.23-10.82L92.23-10.82Q92.23-10.51 92.17-10.20Q92.11-9.88 92.01-9.41L92.01-9.41Q92.46-8.30 92.91-7.44Q93.36-6.58 93.71-5.87Q94.06-5.16 94.29-4.53Q94.51-3.91 94.51-3.28L94.51-3.28Q94.51-2.46 94.18-1.72Q93.85-0.98 93.09-0.47L93.09-0.47Q93.18-0.45 93.28-0.45Q93.38-0.45 93.48-0.45L93.48-0.45Q94.59-0.45 95.53-0.96Q96.46-1.46 97.22-2.28Q97.97-3.09 98.55-4.07Q99.14-5.06 99.57-6.04L99.57-6.04Q99.77-6.48 100.12-6.48L100.12-6.48Q100.45-6.48 100.63-6.25Q100.82-6.02 100.82-5.74L100.82-5.74Q100.82-5.59 100.76-5.45L100.76-5.45Q100.55-4.92 100.21-4.25Q99.86-3.57 99.38-2.86Q98.91-2.15 98.28-1.46Q97.66-0.78 96.88-0.24Q96.11 0.29 95.20 0.62Q94.28 0.94 93.18 0.94L93.18 0.94Q91.88 0.94 90.75 0.48Q89.63 0.02 88.93-1.04L88.93-1.04Q88.81-1.21 88.81-1.41L88.81-1.41Q88.81-1.70 89.03-1.92Q89.26-2.15 89.55-2.15L89.55-2.15Q89.86-2.15 90.08-1.93L90.08-1.93Q90.10-1.89 90.21-1.81Q90.33-1.72 90.50-1.61Q90.66-1.50 90.89-1.43Q91.11-1.35 91.35-1.35L91.35-1.35Q91.82-1.35 92.14-1.54Q92.46-1.74 92.66-2.02Q92.85-2.30 92.94-2.63Q93.03-2.95 93.03-3.18L93.03-3.18Q93.03-3.67 92.87-4.16Q92.71-4.65 92.47-5.14Q92.23-5.63 91.94-6.14Q91.66-6.66 91.43-7.23Z M144.14-13.57L144.14-13.57Q145.82-13.11 147.00-12.50Q148.18-11.89 148.99-11.24Q149.80-10.59 150.27-9.90Q150.74-9.22 151.00-8.59Q151.25-7.97 151.32-7.43Q151.39-6.89 151.39-6.52L151.39-6.52Q151.39-5.16 150.87-4.08Q150.35-3.01 149.47-2.19Q148.59-1.37 147.43-0.80Q146.27-0.23 145 0.13Q143.73 0.49 142.40 0.65Q141.07 0.82 139.88 0.82L139.88 0.82Q137.95 0.82 135.89 0.43Q133.83 0.04 131.72-0.84L131.72-0.84Q131.25-1.04 131.25-1.52L131.25-1.52Q131.25-1.86 131.48-2.06Q131.72-2.27 131.99-2.27L131.99-2.27Q132.13-2.27 132.29-2.21L132.29-2.21Q134.10-1.45 136.02-1.05Q137.93-0.66 139.86-0.66L139.86-0.66Q142.50-0.66 144.39-1.17Q146.29-1.68 147.51-2.51Q148.73-3.34 149.32-4.38Q149.90-5.43 149.90-6.50L149.90-6.50Q149.90-7.70 149.25-8.71Q148.59-9.73 147.39-10.53Q146.19-11.33 144.51-11.89Q142.83-12.46 140.78-12.73L140.78-12.73Q139.43-12.50 138.16-12.40Q136.89-12.30 135.82-12.30L135.82-12.30L135.37-12.30Q135.23-12.30 135.12-12.32L135.12-12.32Q133.71-8.95 131.77-6.48Q129.82-4.02 127.63-2.41Q125.43-0.80 123.12-0.03Q120.80 0.74 118.67 0.74L118.67 0.74Q116.46 0.74 114.62 0.13Q112.77-0.49 111.45-1.62Q110.12-2.75 109.38-4.37Q108.63-5.98 108.63-7.97L108.63-7.97Q108.63-10.04 109.44-12.26Q110.25-14.47 111.86-16.76L111.86-16.76Q113.38-18.91 115.23-20.62Q117.09-22.32 119.13-23.61Q121.17-24.90 123.34-25.82Q125.51-26.74 127.65-27.32Q129.79-27.91 131.83-28.17Q133.87-28.44 135.66-28.44L135.66-28.44Q137.13-28.44 138.46-28.34Q139.79-28.24 141.00-28.05L141.00-28.05Q141.70-28.83 142.13-29.17Q142.56-29.51 142.62-29.55L142.62-29.55Q142.85-29.67 143.03-29.67L143.03-29.67Q143.30-29.67 143.52-29.51Q143.73-29.36 143.73-29.06L143.73-29.06Q143.73-28.67 143.46-28.41Q143.18-28.14 142.71-27.70L142.71-27.70Q146.29-26.82 148.18-25.05Q150.08-23.28 150.08-20.68L150.08-20.68Q150.08-19.26 149.61-18.13Q149.14-16.99 148.33-16.13Q147.52-15.27 146.44-14.64Q145.35-14.00 144.14-13.57ZM140.80-14.22L140.80-14.22Q141.66-14.38 142.57-14.63Q143.48-14.88 144.35-15.24Q145.21-15.61 146.00-16.10Q146.78-16.60 147.35-17.28Q147.93-17.95 148.27-18.79Q148.61-19.63 148.61-20.70L148.61-20.70Q148.61-22.89 146.80-24.32Q144.98-25.74 141.58-26.43L141.58-26.43Q140.61-25.21 139.75-23.75Q138.89-22.29 138.16-20.71Q137.44-19.14 136.87-17.53Q136.29-15.92 135.92-14.41L135.92-14.41Q136.31-14.43 136.64-14.43Q136.97-14.43 137.21-14.43L137.21-14.43Q137.97-14.43 138.87-14.38Q139.77-14.34 140.80-14.22ZM139.92-26.70L139.92-26.70Q138.93-26.84 137.87-26.89Q136.82-26.95 135.66-26.95L135.66-26.95Q133.95-26.95 132.01-26.70Q130.08-26.45 128.05-25.90Q126.02-25.35 123.96-24.48Q121.89-23.61 119.95-22.39Q118.01-21.17 116.25-19.55Q114.49-17.93 113.05-15.90L113.05-15.90Q111.58-13.83 110.84-11.82Q110.10-9.80 110.10-7.99L110.10-7.99Q110.10-6.29 110.71-4.94Q111.33-3.59 112.46-2.67Q113.59-1.74 115.18-1.24Q116.76-0.74 118.67-0.74L118.67-0.74Q120.59-0.74 122.66-1.44Q124.73-2.13 126.70-3.56Q128.67-5 130.45-7.20Q132.23-9.39 133.55-12.42L133.55-12.42Q133.20-12.42 132.83-12.63Q132.46-12.83 132.46-13.28L132.46-13.28Q132.46-13.75 132.91-13.96Q133.36-14.16 134.32-14.30L134.32-14.30Q134.84-15.90 135.39-17.50Q135.94-19.10 136.60-20.66Q137.27-22.23 138.07-23.74Q138.87-25.25 139.92-26.70Z M156.62-2.15L156.62-2.15Q157.03-1.58 157.68-1.24Q158.32-0.90 159.26-0.90L159.26-0.90Q160.21-0.90 161.00-1.36Q161.78-1.82 162.42-2.56Q163.07-3.30 163.57-4.22Q164.08-5.14 164.49-6.05L164.49-6.05Q164.59-6.27 164.77-6.38Q164.94-6.48 165.16-6.48L165.16-6.48Q165.49-6.48 165.69-6.25Q165.90-6.02 165.90-5.74L165.90-5.74Q165.90-5.64 165.88-5.58Q165.86-5.51 165.82-5.43L165.82-5.43Q164.47-2.46 162.88-0.96Q161.29 0.55 159.28 0.59L159.28 0.59Q157.99 0.59 157.05 0.09Q156.11-0.41 155.51-1.20Q154.90-1.99 154.61-2.99Q154.32-3.98 154.32-4.98L154.32-4.98Q154.32-5.98 154.56-6.82Q154.80-7.66 155.26-8.28Q155.72-8.91 156.36-9.26Q156.99-9.61 157.75-9.61L157.75-9.61Q158.20-9.61 158.64-9.42Q159.08-9.24 159.43-8.90Q159.79-8.55 160-8.07Q160.21-7.58 160.21-6.95L160.21-6.95Q160.21-6.15 159.94-5.45Q159.67-4.75 159.19-4.14Q158.71-3.54 158.05-3.03Q157.38-2.52 156.62-2.15ZM156.04-3.42L156.04-3.42Q156.64-3.67 157.14-4.06Q157.64-4.45 157.99-4.92Q158.34-5.39 158.54-5.91Q158.73-6.43 158.73-6.95L158.73-6.95Q158.73-7.54 158.44-7.84Q158.14-8.14 157.75-8.14L157.75-8.14Q157.23-8.14 156.86-7.85Q156.48-7.56 156.25-7.09Q156.02-6.62 155.91-6.04Q155.80-5.47 155.80-4.90L155.80-4.90Q155.80-4.55 155.87-4.16Q155.94-3.77 156.04-3.42Z M179.59-5.45L179.59-5.45Q179.51-5.29 179.27-4.79Q179.02-4.30 178.64-3.65Q178.26-3.01 177.75-2.30Q177.25-1.60 176.62-1.02Q176.00-0.43 175.27-0.05Q174.55 0.33 173.75 0.33L173.75 0.33Q172.62 0.33 171.85-0.39Q171.07-1.11 170.72-2.21L170.72-2.21Q170.06-1.09 169.14-0.44Q168.22 0.21 167.30 0.21L167.30 0.21Q166.58 0.21 166.00-0.05Q165.41-0.31 165-0.79Q164.59-1.27 164.37-1.91Q164.14-2.56 164.14-3.32L164.14-3.32Q164.14-4.84 164.66-6.01Q165.18-7.17 165.98-7.95Q166.78-8.73 167.74-9.12Q168.71-9.51 169.61-9.51L169.61-9.51Q170.21-9.51 170.72-9.35Q171.23-9.18 171.59-8.98Q171.95-8.79 172.15-8.62Q172.34-8.46 172.36-8.44L172.36-8.44Q172.58-8.18 172.58-7.91L172.58-7.91Q172.58-7.62 172.36-7.39Q172.15-7.17 171.86-7.17L171.86-7.17Q171.54-7.17 171.33-7.38L171.33-7.38Q171.29-7.42 171.15-7.53Q171.02-7.64 170.78-7.75Q170.55-7.87 170.22-7.96Q169.90-8.05 169.49-8.05L169.49-8.05Q168.89-8.05 168.20-7.77Q167.52-7.50 166.95-6.92Q166.39-6.35 166.01-5.48Q165.63-4.61 165.63-3.42L165.63-3.42Q165.63-3.05 165.70-2.67Q165.78-2.29 165.98-1.97Q166.17-1.66 166.50-1.46Q166.84-1.27 167.32-1.27L167.32-1.27Q167.68-1.27 168.13-1.50Q168.59-1.74 169.01-2.23Q169.43-2.71 169.78-3.46Q170.12-4.20 170.25-5.21L170.25-5.21Q170.29-5.49 170.51-5.67Q170.72-5.86 171.02-5.86L171.02-5.86Q171.29-5.86 171.49-5.64Q171.70-5.43 171.72-5.16L171.72-5.16Q171.74-4.79 171.80-4.11Q171.86-3.44 172.06-2.77Q172.27-2.11 172.68-1.62Q173.09-1.13 173.81-1.13L173.81-1.13Q174.28-1.13 174.74-1.39Q175.20-1.64 175.63-2.06Q176.07-2.48 176.47-3.02Q176.88-3.55 177.21-4.10Q177.54-4.65 177.79-5.16Q178.05-5.66 178.22-6.04L178.22-6.04Q178.32-6.25 178.51-6.37Q178.69-6.48 178.91-6.48L178.91-6.48Q179.24-6.48 179.44-6.24Q179.65-6.00 179.65-5.72L179.65-5.72Q179.65-5.59 179.59-5.45Z M184.73-2.19L184.73-2.19Q184.04-1.07 183.13-0.43Q182.23 0.21 181.31 0.21L181.31 0.21Q180.57 0.21 179.98-0.06Q179.39-0.33 178.96-0.83Q178.54-1.33 178.31-2.03Q178.09-2.73 178.09-3.61L178.09-3.61Q178.09-4.98 178.35-6.04Q178.61-7.09 178.93-7.80Q179.24-8.52 179.51-8.89Q179.79-9.26 179.79-9.26L179.79-9.26Q179.88-9.38 180.03-9.43Q180.18-9.49 180.33-9.49L180.33-9.49Q180.64-9.49 180.85-9.27Q181.05-9.04 181.05-8.75L181.05-8.75Q181.05-8.63 181.01-8.52Q180.96-8.40 180.90-8.28L180.90-8.28Q180.80-8.11 180.59-7.74Q180.37-7.38 180.14-6.80Q179.90-6.21 179.73-5.42Q179.55-4.63 179.55-3.61L179.55-3.61Q179.55-2.46 180.01-1.87Q180.47-1.27 181.31-1.27L181.31-1.27Q181.66-1.27 182.12-1.49Q182.58-1.72 183.02-2.19Q183.46-2.66 183.79-3.38Q184.12-4.10 184.22-5.08L184.22-5.08L184.51-8.44Q184.55-8.73 184.77-8.93Q184.98-9.12 185.27-9.12L185.27-9.12Q185.61-9.12 185.80-8.88Q186.00-8.63 186.00-8.32L186.00-8.32L185.74-5.08Q185.70-4.67 185.77-4.00Q185.84-3.34 186.05-2.70Q186.27-2.05 186.70-1.59Q187.13-1.13 187.83-1.13L187.83-1.13Q188.34-1.13 188.83-1.40Q189.32-1.66 189.77-2.09Q190.21-2.52 190.60-3.06Q190.98-3.59 191.30-4.14Q191.62-4.69 191.86-5.19Q192.09-5.68 192.25-6.04L192.25-6.04Q192.34-6.25 192.52-6.37Q192.70-6.48 192.91-6.48L192.91-6.48Q193.26-6.48 193.46-6.25Q193.65-6.02 193.65-5.74L193.65-5.74Q193.65-5.59 193.59-5.45L193.59-5.45Q193.52-5.29 193.29-4.79Q193.07-4.30 192.71-3.66Q192.34-3.03 191.84-2.32Q191.33-1.62 190.70-1.03Q190.08-0.43 189.35-0.05Q188.61 0.33 187.77 0.33L187.77 0.33Q186.62 0.33 185.86-0.32Q185.10-0.98 184.73-2.19Z M208.07-19.55L208.07-19.55Q208.07-19.24 207.85-19.05Q207.64-18.87 207.32-18.87L207.32-18.87L197.42-18.87L197.42-18.65Q197.42-17.46 197.25-16.11Q197.07-14.77 196.77-13.43Q196.46-12.09 196.08-10.82Q195.70-9.55 195.30-8.48Q194.90-7.40 194.51-6.61Q194.12-5.82 193.81-5.43L193.81-5.43Q194.06-4.53 194.41-3.76Q194.77-2.99 195.21-2.41Q195.64-1.84 196.15-1.50Q196.66-1.17 197.25-1.17L197.25-1.17Q197.93-1.17 198.60-1.75Q199.28-2.32 199.85-3.12Q200.43-3.91 200.87-4.72Q201.31-5.53 201.50-6.02L201.50-6.02Q201.70-6.48 202.19-6.48L202.19-6.48Q202.52-6.48 202.72-6.25Q202.93-6.02 202.93-5.74L202.93-5.74Q202.93-5.61 202.87-5.47L202.87-5.47Q202.81-5.33 202.59-4.84Q202.36-4.36 202.00-3.71Q201.64-3.07 201.16-2.35Q200.68-1.64 200.09-1.05Q199.49-0.47 198.81-0.08Q198.13 0.31 197.36 0.31L197.36 0.31Q196.02 0.31 194.94-0.57Q193.87-1.45 193.12-3.03Q192.36-4.61 191.97-6.78Q191.58-8.95 191.58-11.52L191.58-11.52Q191.58-12.17 191.60-13.04Q191.62-13.91 191.68-14.87Q191.74-15.84 191.86-16.87Q191.97-17.89 192.17-18.87L192.17-18.87L185.16-18.87Q184.84-18.87 184.63-19.05Q184.41-19.24 184.41-19.55L184.41-19.55Q184.41-19.86 184.63-20.05Q184.84-20.23 185.16-20.23L185.16-20.23L192.50-20.23Q192.70-20.94 192.96-21.52Q193.22-22.11 193.56-22.54Q193.91-22.97 194.33-23.21Q194.75-23.46 195.25-23.46L195.25-23.46Q195.74-23.46 196.10-23.21Q196.46-22.97 196.72-22.54Q196.97-22.11 197.12-21.52Q197.27-20.94 197.34-20.23L197.34-20.23L207.32-20.23Q207.64-20.23 207.85-20.05Q208.07-19.86 208.07-19.55ZM193.36-7.38L193.36-7.38Q193.95-8.67 194.42-10.17Q194.90-11.66 195.24-13.18Q195.59-14.71 195.77-16.17Q195.96-17.64 195.96-18.87L195.96-18.87L193.65-18.87Q193.38-17.66 193.21-15.87Q193.05-14.08 193.05-11.52L193.05-11.52Q193.05-10.10 193.13-9.13Q193.20-8.16 193.36-7.38ZM195.18-21.99L195.18-21.99Q195-21.99 194.67-21.61Q194.34-21.23 194.00-20.23L194.00-20.23L195.88-20.23Q195.78-21.05 195.60-21.52Q195.41-21.99 195.18-21.99ZM193.67-5.96L193.67-5.98L193.67-5.96Z M208.85 0.27L208.85 0.27Q209.53-0.41 210.23-1.12Q210.94-1.84 211.60-2.62Q212.27-3.40 212.84-4.25Q213.42-5.10 213.87-6.05L213.87-6.05Q213.96-6.27 214.14-6.38Q214.32-6.48 214.53-6.48L214.53-6.48Q214.86-6.48 215.07-6.25Q215.27-6.02 215.27-5.72L215.27-5.72Q215.27-5.57 215.21-5.43L215.21-5.43Q214.61-4.16 213.83-3.11Q213.05-2.05 212.19-1.10Q211.33-0.16 210.45 0.73Q209.57 1.62 208.77 2.52L208.77 2.52Q208.69 3.87 208.77 5.22Q208.85 6.58 208.85 8.11L208.85 8.11Q208.85 9.36 208.77 10.61Q208.69 11.86 208.52 13.00Q208.34 14.14 208.04 15.14Q207.73 16.13 207.27 16.87Q206.80 17.60 206.17 18.02Q205.55 18.44 204.71 18.44L204.71 18.44Q203.32 18.44 202.58 17.48Q201.84 16.52 201.84 14.80L201.84 14.80Q201.84 13.87 202.04 12.79Q202.25 11.72 202.62 10.58Q202.99 9.43 203.51 8.26Q204.02 7.09 204.63 5.98Q205.23 4.86 205.92 3.86Q206.60 2.85 207.30 2.03L207.30 2.03Q207.34 1.09 207.39 0.09Q207.44-0.92 207.50-1.78L207.50-1.78Q206.99-0.88 206.24-0.33Q205.49 0.21 204.59 0.21L204.59 0.21Q203.11 0.21 202.27-0.78Q201.43-1.78 201.43-3.52L201.43-3.52Q201.43-4.79 201.67-5.83Q201.91-6.88 202.20-7.63Q202.48-8.38 202.71-8.78Q202.95-9.18 202.95-9.16L202.95-9.16Q203.16-9.49 203.55-9.49L203.55-9.49Q203.89-9.49 204.09-9.27Q204.30-9.04 204.30-8.75L204.30-8.75Q204.30-8.54 204.18-8.36L204.18-8.36Q204.20-8.38 203.99-8.04Q203.79-7.70 203.54-7.05Q203.30-6.41 203.10-5.51Q202.89-4.61 202.89-3.54L202.89-3.54Q202.89-2.46 203.28-1.86Q203.67-1.25 204.55-1.25L204.55-1.25Q205.66-1.25 206.56-2.90Q207.46-4.55 208.09-7.70L208.09-7.70Q208.13-7.95 208.32-8.12Q208.52-8.28 208.79-8.28L208.79-8.28Q209.10-8.28 209.32-8.07Q209.53-7.85 209.53-7.54L209.53-7.54Q209.53-7.48 209.45-6.85Q209.38-6.21 209.27-5.16Q209.16-4.10 209.04-2.71Q208.93-1.31 208.85 0.27ZM207.29 4.41L207.29 4.41Q206.41 5.68 205.67 7.09Q204.94 8.50 204.41 9.88Q203.89 11.27 203.59 12.54Q203.30 13.81 203.30 14.80L203.30 14.80Q203.30 15.82 203.63 16.40Q203.96 16.97 204.69 16.97L204.69 16.97Q205.33 16.97 205.83 16.34Q206.33 15.70 206.67 14.53Q207.01 13.36 207.19 11.69Q207.36 10.02 207.36 7.95L207.36 7.95Q207.36 7.11 207.33 6.25Q207.30 5.39 207.29 4.41Z"/></g>
</svg>
</g></g><g filter="url(#a2O-D20rgJ)"><g opacity="1" transform="rotate(0 213.7084 118.1154)">
<svg width="98.4286" height="90" x="213.7084" y="118.1154" version="1.1" preserveAspectRatio="none" viewBox="5 8.852999687194824 90 82.29301452636719">
  <g transform="matrix(1 0 0 1 0 0)" class="icon3"><path d="M68.835,12.853C81.057,12.853,91,22.796,91,35.019c0,26.395-32.808,46.858-41.003,51.557C41.792,81.881,9,61.46,9,35.019  c0-12.222,9.944-22.166,22.166-22.166c6.047,0,11.699,2.396,15.916,6.747l2.828,2.918l0.074-0.074l0.091,0.092l2.844-2.934  C57.135,15.25,62.787,12.853,68.835,12.853 M68.835,8.853c-7.375,0-14.033,3.056-18.79,7.965l-0.046-0.046l-0.045,0.045  c-4.757-4.908-11.414-7.963-18.788-7.963C16.715,8.853,5,20.567,5,35.019C5,67.87,49.999,91.146,49.999,91.146S95,67.87,95,35.019  C95,20.567,83.285,8.853,68.835,8.853L68.835,8.853z"></path><path fill-rule="evenodd" clip-rule="evenodd" stroke-width="4" stroke-miterlimit="10" d="  M8.204,51.309"></path></g>
</svg>
</g></g><g filter="url(#i0NrGVRvc)"><g opacity="1" transform="rotate(0 213.7084 118.1154)">
<svg width="98.4286" height="90" x="213.7084" y="118.1154" version="1.1" preserveAspectRatio="none" viewBox="5 8.852999687194824 90 82.29301452636719">
  <g transform="matrix(1 0 0 1 0 0)" class="companyName"><path d="M68.835,12.853C81.057,12.853,91,22.796,91,35.019c0,26.395-32.808,46.858-41.003,51.557C41.792,81.881,9,61.46,9,35.019  c0-12.222,9.944-22.166,22.166-22.166c6.047,0,11.699,2.396,15.916,6.747l2.828,2.918l0.074-0.074l0.091,0.092l2.844-2.934  C57.135,15.25,62.787,12.853,68.835,12.853 M68.835,8.853c-7.375,0-14.033,3.056-18.79,7.965l-0.046-0.046l-0.045,0.045  c-4.757-4.908-11.414-7.963-18.788-7.963C16.715,8.853,5,20.567,5,35.019C5,67.87,49.999,91.146,49.999,91.146S95,67.87,95,35.019  C95,20.567,83.285,8.853,68.835,8.853L68.835,8.853z"></path><path fill-rule="evenodd" clip-rule="evenodd" stroke-width="4" stroke-miterlimit="10" d="  M8.204,51.309"></path></g>
</svg>
</g></g></svg></svg>